<?xml version="1.0" encoding="UTF-8" standalone="no"?>
<!-- Created with Inkscape (http://www.inkscape.org/) -->

<svg
   xmlns:dc="http://purl.org/dc/elements/1.1/"
   xmlns:cc="http://creativecommons.org/ns#"
   xmlns:rdf="http://www.w3.org/1999/02/22-rdf-syntax-ns#"
   xmlns:svg="http://www.w3.org/2000/svg"
   xmlns="http://www.w3.org/2000/svg"
   xmlns:sodipodi="http://sodipodi.sourceforge.net/DTD/sodipodi-0.dtd"
   xmlns:inkscape="http://www.inkscape.org/namespaces/inkscape"
   id="svg2"
   version="1.1"
   inkscape:version="0.91 r13725"
   xml:space="preserve"
   width="377.94989"
   height="327.49994"
   viewBox="0 0 377.94989 327.49994"
   sodipodi:docname="tern_quant.svg"><sodipodi:namedview
     pagecolor="#ffffff"
     bordercolor="#666666"
     borderopacity="1"
     objecttolerance="10"
     gridtolerance="10"
     guidetolerance="10"
     inkscape:pageopacity="1"
     inkscape:pageshadow="2"
     inkscape:window-width="1920"
     inkscape:window-height="1056"
     id="namedview4"
     showgrid="false"
     fit-margin-top="0"
     fit-margin-left="0"
     fit-margin-right="0"
     fit-margin-bottom="0"
     inkscape:zoom="1.6924012"
     inkscape:cx="21.143289"
     inkscape:cy="163.59375"
     inkscape:window-x="0"
     inkscape:window-y="24"
     inkscape:window-maximized="1"
     inkscape:current-layer="g10" /><metadata
     id="metadata8"><rdf:RDF><cc:Work
         rdf:about=""><dc:format>image/svg+xml</dc:format><dc:type
           rdf:resource="http://purl.org/dc/dcmitype/StillImage" /><dc:title /></cc:Work></rdf:RDF></metadata><defs
     id="defs6"><clipPath
       id="clipPath20"
       clipPathUnits="userSpaceOnUse"><path
         inkscape:connector-curvature="0"
         id="path22"
         d="m 112.37,0 433.76,0 0,377.25 -433.76,0 0,-377.25 z" /></clipPath><clipPath
       id="clipPath34"
       clipPathUnits="userSpaceOnUse"><path
         inkscape:connector-curvature="0"
         id="path36"
         d="m 118.35,5.98 421.81,0 0,365.29 -421.81,0 0,-365.29 z" /></clipPath></defs><g
     transform="matrix(1.25,0,0,-1.25,-222.5813,399.53118)"
     inkscape:label="tern_quant"
     inkscape:groupmode="layer"
     id="g10"><g
       id="g12" /><g
       id="g14" /><g
       id="g16"><g
         clip-path="url(#clipPath20)"
         id="g18" /></g><g
       id="g24" /><g
       id="g26" /><g
       id="g28" /><g
       id="g30"><g
         clip-path="url(#clipPath34)"
         id="g32"><path
           inkscape:connector-curvature="0"
           id="path38"
           style="fill:#ff9fff;fill-opacity:1;fill-rule:nonzero;stroke:#000000;stroke-width:1.07000005;stroke-linecap:round;stroke-linejoin:round;stroke-miterlimit:10;stroke-dasharray:none;stroke-opacity:1"
           d="m 178.6,58.16 30.13,52.19 30.13,-52.19 -60.26,0 z" /><path
           inkscape:connector-curvature="0"
           id="path40"
           style="fill:#ffb5ff;fill-opacity:1;fill-rule:nonzero;stroke:#000000;stroke-width:1.07000005;stroke-linecap:round;stroke-linejoin:round;stroke-miterlimit:10;stroke-dasharray:none;stroke-opacity:1"
           d="m 268.99,110.35 -30.13,-52.19 -30.13,52.19 60.26,0 z" /><path
           inkscape:connector-curvature="0"
           id="path42"
           style="fill:#e7cfff;fill-opacity:1;fill-rule:nonzero;stroke:#000000;stroke-width:1.07000005;stroke-linecap:round;stroke-linejoin:round;stroke-miterlimit:10;stroke-dasharray:none;stroke-opacity:1"
           d="m 238.86,58.16 30.13,52.19 30.13,-52.19 -60.26,0 z" /><path
           inkscape:connector-curvature="0"
           id="path44"
           style="fill:#d1dcff;fill-opacity:1;fill-rule:nonzero;stroke:#000000;stroke-width:1.07000005;stroke-linecap:round;stroke-linejoin:round;stroke-miterlimit:10;stroke-dasharray:none;stroke-opacity:1"
           d="m 329.25,110.35 -30.13,-52.19 -30.13,52.19 60.26,0 z" /><path
           inkscape:connector-curvature="0"
           id="path46"
           style="fill:#60edff;fill-opacity:1;fill-rule:nonzero;stroke:#000000;stroke-width:1.07000005;stroke-linecap:round;stroke-linejoin:round;stroke-miterlimit:10;stroke-dasharray:none;stroke-opacity:1"
           d="m 299.12,58.16 30.13,52.19 30.13,-52.19 -60.26,0 z" /><path
           inkscape:connector-curvature="0"
           id="path48"
           style="fill:#12f6ff;fill-opacity:1;fill-rule:nonzero;stroke:#000000;stroke-width:1.07000005;stroke-linecap:round;stroke-linejoin:round;stroke-miterlimit:10;stroke-dasharray:none;stroke-opacity:1"
           d="m 389.51,110.35 -30.13,-52.19 -30.13,52.19 60.26,0 z" /><path
           inkscape:connector-curvature="0"
           id="path50"
           style="fill:#00ffff;fill-opacity:1;fill-rule:nonzero;stroke:#000000;stroke-width:1.07000005;stroke-linecap:round;stroke-linejoin:round;stroke-miterlimit:10;stroke-dasharray:none;stroke-opacity:1"
           d="m 359.38,58.16 30.13,52.19 30.13,-52.19 -60.26,0 z" /><path
           inkscape:connector-curvature="0"
           id="path52"
           style="fill:#00ffff;fill-opacity:1;fill-rule:nonzero;stroke:#000000;stroke-width:1.07000005;stroke-linecap:round;stroke-linejoin:round;stroke-miterlimit:10;stroke-dasharray:none;stroke-opacity:1"
           d="m 449.77,110.35 -30.13,-52.19 -30.13,52.19 60.26,0 z" /><path
           inkscape:connector-curvature="0"
           id="path54"
           style="fill:#00ffff;fill-opacity:1;fill-rule:nonzero;stroke:#000000;stroke-width:1.07000005;stroke-linecap:round;stroke-linejoin:round;stroke-miterlimit:10;stroke-dasharray:none;stroke-opacity:1"
           d="m 419.64,58.16 30.13,52.19 30.12,-52.19 -60.25,0 z" /><path
           inkscape:connector-curvature="0"
           id="path56"
           style="fill:#ffacff;fill-opacity:1;fill-rule:nonzero;stroke:#000000;stroke-width:1.07000005;stroke-linecap:round;stroke-linejoin:round;stroke-miterlimit:10;stroke-dasharray:none;stroke-opacity:1"
           d="m 208.73,110.35 30.13,52.18 30.13,-52.18 -60.26,0 z" /><path
           inkscape:connector-curvature="0"
           id="path58"
           style="fill:#ffbff4;fill-opacity:1;fill-rule:nonzero;stroke:#000000;stroke-width:1.07000005;stroke-linecap:round;stroke-linejoin:round;stroke-miterlimit:10;stroke-dasharray:none;stroke-opacity:1"
           d="m 299.12,162.53 -30.13,-52.18 -30.13,52.18 60.26,0 z" /><path
           inkscape:connector-curvature="0"
           id="path60"
           style="fill:#fcd6ff;fill-opacity:1;fill-rule:nonzero;stroke:#000000;stroke-width:1.07000005;stroke-linecap:round;stroke-linejoin:round;stroke-miterlimit:10;stroke-dasharray:none;stroke-opacity:1"
           d="m 268.99,110.35 30.13,52.18 30.13,-52.18 -60.26,0 z" /><path
           inkscape:connector-curvature="0"
           id="path62"
           style="fill:#e2e2e2;fill-opacity:1;fill-rule:nonzero;stroke:#000000;stroke-width:1.07000005;stroke-linecap:round;stroke-linejoin:round;stroke-miterlimit:10;stroke-dasharray:none;stroke-opacity:1"
           d="m 359.38,162.53 -30.13,-52.18 -30.13,52.18 60.26,0 z" /><path
           inkscape:connector-curvature="0"
           id="path64"
           style="fill:#97f1f4;fill-opacity:1;fill-rule:nonzero;stroke:#000000;stroke-width:1.07000005;stroke-linecap:round;stroke-linejoin:round;stroke-miterlimit:10;stroke-dasharray:none;stroke-opacity:1"
           d="m 329.25,110.35 30.13,52.18 30.13,-52.18 -60.26,0 z" /><path
           inkscape:connector-curvature="0"
           id="path66"
           style="fill:#6efad1;fill-opacity:1;fill-rule:nonzero;stroke:#000000;stroke-width:1.07000005;stroke-linecap:round;stroke-linejoin:round;stroke-miterlimit:10;stroke-dasharray:none;stroke-opacity:1"
           d="m 419.64,162.53 -30.13,-52.18 -30.13,52.18 60.26,0 z" /><path
           inkscape:connector-curvature="0"
           id="path68"
           style="fill:#00ffe2;fill-opacity:1;fill-rule:nonzero;stroke:#000000;stroke-width:1.07000005;stroke-linecap:round;stroke-linejoin:round;stroke-miterlimit:10;stroke-dasharray:none;stroke-opacity:1"
           d="m 389.51,110.35 30.13,52.18 30.13,-52.18 -60.26,0 z" /><path
           inkscape:connector-curvature="0"
           id="path70"
           style="fill:#ffb8c1;fill-opacity:1;fill-rule:nonzero;stroke:#000000;stroke-width:1.07000005;stroke-linecap:round;stroke-linejoin:round;stroke-miterlimit:10;stroke-dasharray:none;stroke-opacity:1"
           d="m 238.86,162.53 30.13,52.19 30.13,-52.19 -60.26,0 z" /><path
           inkscape:connector-curvature="0"
           id="path72"
           style="fill:#ffca9d;fill-opacity:1;fill-rule:nonzero;stroke:#000000;stroke-width:1.07000005;stroke-linecap:round;stroke-linejoin:round;stroke-miterlimit:10;stroke-dasharray:none;stroke-opacity:1"
           d="m 329.25,214.72 -30.13,-52.19 -30.13,52.19 60.26,0 z" /><path
           inkscape:connector-curvature="0"
           id="path74"
           style="fill:#ffdeae;fill-opacity:1;fill-rule:nonzero;stroke:#000000;stroke-width:1.07000005;stroke-linecap:round;stroke-linejoin:round;stroke-miterlimit:10;stroke-dasharray:none;stroke-opacity:1"
           d="m 299.12,162.53 30.13,52.19 30.13,-52.19 -60.26,0 z" /><path
           inkscape:connector-curvature="0"
           id="path76"
           style="fill:#e1e989;fill-opacity:1;fill-rule:nonzero;stroke:#000000;stroke-width:1.07000005;stroke-linecap:round;stroke-linejoin:round;stroke-miterlimit:10;stroke-dasharray:none;stroke-opacity:1"
           d="m 389.51,214.72 -30.13,-52.19 -30.13,52.19 60.26,0 z" /><path
           inkscape:connector-curvature="0"
           id="path78"
           style="fill:#a2f79b;fill-opacity:1;fill-rule:nonzero;stroke:#000000;stroke-width:1.07000005;stroke-linecap:round;stroke-linejoin:round;stroke-miterlimit:10;stroke-dasharray:none;stroke-opacity:1"
           d="m 359.38,162.53 30.13,52.19 30.13,-52.19 -60.26,0 z" /><path
           inkscape:connector-curvature="0"
           id="path80"
           style="fill:#ffc566;fill-opacity:1;fill-rule:nonzero;stroke:#000000;stroke-width:1.07000005;stroke-linecap:round;stroke-linejoin:round;stroke-miterlimit:10;stroke-dasharray:none;stroke-opacity:1"
           d="m 268.99,214.72 30.13,52.18 30.13,-52.18 -60.26,0 z" /><path
           inkscape:connector-curvature="0"
           id="path82"
           style="fill:#ffd533;fill-opacity:1;fill-rule:nonzero;stroke:#000000;stroke-width:1.07000005;stroke-linecap:round;stroke-linejoin:round;stroke-miterlimit:10;stroke-dasharray:none;stroke-opacity:1"
           d="m 359.38,266.9 -30.13,-52.18 -30.13,52.18 60.26,0 z" /><path
           inkscape:connector-curvature="0"
           id="path84"
           style="fill:#f5e64b;fill-opacity:1;fill-rule:nonzero;stroke:#000000;stroke-width:1.07000005;stroke-linecap:round;stroke-linejoin:round;stroke-miterlimit:10;stroke-dasharray:none;stroke-opacity:1"
           d="m 329.25,214.72 30.13,52.18 30.13,-52.18 -60.26,0 z" /><path
           inkscape:connector-curvature="0"
           id="path86"
           style="fill:#ffd100;fill-opacity:1;fill-rule:nonzero;stroke:#000000;stroke-width:1.07000005;stroke-linecap:round;stroke-linejoin:round;stroke-miterlimit:10;stroke-dasharray:none;stroke-opacity:1"
           d="m 299.12,266.9 30.13,52.19 30.13,-52.19 -60.26,0 z" /><path
           inkscape:connector-curvature="0"
           id="path88"
           style="fill:#000000;fill-opacity:1;fill-rule:nonzero;stroke:#000000;stroke-width:0.70999998;stroke-linecap:round;stroke-linejoin:round;stroke-miterlimit:10;stroke-dasharray:none;stroke-opacity:1"
           d="m 200.91,75.56 c 0,4.3 3.52,7.82 7.82,7.82 4.31,0 7.83,-3.52 7.83,-7.82 0,-4.31 -3.52,-7.83 -7.83,-7.83 -4.3,0 -7.82,3.52 -7.82,7.83" /><path
           inkscape:connector-curvature="0"
           id="path90"
           style="fill:#000000;fill-opacity:1;fill-rule:nonzero;stroke:#000000;stroke-width:0.70999998;stroke-linecap:round;stroke-linejoin:round;stroke-miterlimit:10;stroke-dasharray:none;stroke-opacity:1"
           d="m 231.04,92.95 c 0,4.31 3.52,7.83 7.82,7.83 4.31,0 7.83,-3.52 7.83,-7.83 0,-4.3 -3.52,-7.82 -7.83,-7.82 -4.3,0 -7.82,3.52 -7.82,7.82" /><path
           inkscape:connector-curvature="0"
           id="path92"
           style="fill:#000000;fill-opacity:1;fill-rule:nonzero;stroke:#000000;stroke-width:0.70999998;stroke-linecap:round;stroke-linejoin:round;stroke-miterlimit:10;stroke-dasharray:none;stroke-opacity:1"
           d="m 261.17,75.56 c 0,4.3 3.52,7.82 7.82,7.82 4.3,0 7.83,-3.52 7.83,-7.82 0,-4.31 -3.53,-7.83 -7.83,-7.83 -4.3,0 -7.82,3.52 -7.82,7.83" /><path
           inkscape:connector-curvature="0"
           id="path94"
           style="fill:#000000;fill-opacity:1;fill-rule:nonzero;stroke:#000000;stroke-width:0.70999998;stroke-linecap:round;stroke-linejoin:round;stroke-miterlimit:10;stroke-dasharray:none;stroke-opacity:1"
           d="m 291.3,92.95 c 0,4.31 3.52,7.83 7.82,7.83 4.3,0 7.82,-3.52 7.82,-7.83 0,-4.3 -3.52,-7.82 -7.82,-7.82 -4.3,0 -7.82,3.52 -7.82,7.82" /><path
           inkscape:connector-curvature="0"
           id="path96"
           style="fill:#000000;fill-opacity:1;fill-rule:nonzero;stroke:#000000;stroke-width:0.70999998;stroke-linecap:round;stroke-linejoin:round;stroke-miterlimit:10;stroke-dasharray:none;stroke-opacity:1"
           d="m 321.43,75.56 c 0,4.3 3.52,7.82 7.82,7.82 4.3,0 7.82,-3.52 7.82,-7.82 0,-4.31 -3.52,-7.83 -7.82,-7.83 -4.3,0 -7.82,3.52 -7.82,7.83" /><path
           inkscape:connector-curvature="0"
           id="path98"
           style="fill:#000000;fill-opacity:1;fill-rule:nonzero;stroke:#000000;stroke-width:0.70999998;stroke-linecap:round;stroke-linejoin:round;stroke-miterlimit:10;stroke-dasharray:none;stroke-opacity:1"
           d="m 351.56,92.95 c 0,4.31 3.52,7.83 7.82,7.83 4.3,0 7.82,-3.52 7.82,-7.83 0,-4.3 -3.52,-7.82 -7.82,-7.82 -4.3,0 -7.82,3.52 -7.82,7.82" /><path
           inkscape:connector-curvature="0"
           id="path100"
           style="fill:#000000;fill-opacity:1;fill-rule:nonzero;stroke:#000000;stroke-width:0.70999998;stroke-linecap:round;stroke-linejoin:round;stroke-miterlimit:10;stroke-dasharray:none;stroke-opacity:1"
           d="m 381.68,75.56 c 0,4.3 3.53,7.82 7.83,7.82 4.3,0 7.82,-3.52 7.82,-7.82 0,-4.31 -3.52,-7.83 -7.82,-7.83 -4.3,0 -7.83,3.52 -7.83,7.83" /><path
           inkscape:connector-curvature="0"
           id="path102"
           style="fill:#000000;fill-opacity:1;fill-rule:nonzero;stroke:#000000;stroke-width:0.70999998;stroke-linecap:round;stroke-linejoin:round;stroke-miterlimit:10;stroke-dasharray:none;stroke-opacity:1"
           d="m 411.81,92.95 c 0,4.31 3.52,7.83 7.83,7.83 4.3,0 7.82,-3.52 7.82,-7.83 0,-4.3 -3.52,-7.82 -7.82,-7.82 -4.31,0 -7.83,3.52 -7.83,7.82" /><path
           inkscape:connector-curvature="0"
           id="path104"
           style="fill:#000000;fill-opacity:1;fill-rule:nonzero;stroke:#000000;stroke-width:0.70999998;stroke-linecap:round;stroke-linejoin:round;stroke-miterlimit:10;stroke-dasharray:none;stroke-opacity:1"
           d="m 441.94,75.56 c 0,4.3 3.52,7.82 7.83,7.82 4.3,0 7.82,-3.52 7.82,-7.82 0,-4.31 -3.52,-7.83 -7.82,-7.83 -4.31,0 -7.83,3.52 -7.83,7.83" /><path
           inkscape:connector-curvature="0"
           id="path106"
           style="fill:#000000;fill-opacity:1;fill-rule:nonzero;stroke:#000000;stroke-width:0.70999998;stroke-linecap:round;stroke-linejoin:round;stroke-miterlimit:10;stroke-dasharray:none;stroke-opacity:1"
           d="m 231.04,127.74 c 0,4.31 3.52,7.83 7.82,7.83 4.31,0 7.83,-3.52 7.83,-7.83 0,-4.3 -3.52,-7.82 -7.83,-7.82 -4.3,0 -7.82,3.52 -7.82,7.82" /><path
           inkscape:connector-curvature="0"
           id="path108"
           style="fill:#000000;fill-opacity:1;fill-rule:nonzero;stroke:#000000;stroke-width:0.70999998;stroke-linecap:round;stroke-linejoin:round;stroke-miterlimit:10;stroke-dasharray:none;stroke-opacity:1"
           d="m 261.17,145.14 c 0,4.3 3.52,7.82 7.82,7.82 4.3,0 7.83,-3.52 7.83,-7.82 0,-4.31 -3.53,-7.83 -7.83,-7.83 -4.3,0 -7.82,3.52 -7.82,7.83" /><path
           inkscape:connector-curvature="0"
           id="path110"
           style="fill:#000000;fill-opacity:1;fill-rule:nonzero;stroke:#000000;stroke-width:0.70999998;stroke-linecap:round;stroke-linejoin:round;stroke-miterlimit:10;stroke-dasharray:none;stroke-opacity:1"
           d="m 291.3,127.74 c 0,4.31 3.52,7.83 7.82,7.83 4.3,0 7.82,-3.52 7.82,-7.83 0,-4.3 -3.52,-7.82 -7.82,-7.82 -4.3,0 -7.82,3.52 -7.82,7.82" /><path
           inkscape:connector-curvature="0"
           id="path112"
           style="fill:#000000;fill-opacity:1;fill-rule:nonzero;stroke:#000000;stroke-width:0.70999998;stroke-linecap:round;stroke-linejoin:round;stroke-miterlimit:10;stroke-dasharray:none;stroke-opacity:1"
           d="m 321.43,145.14 c 0,4.3 3.52,7.82 7.82,7.82 4.3,0 7.82,-3.52 7.82,-7.82 0,-4.31 -3.52,-7.83 -7.82,-7.83 -4.3,0 -7.82,3.52 -7.82,7.83" /><path
           inkscape:connector-curvature="0"
           id="path114"
           style="fill:#000000;fill-opacity:1;fill-rule:nonzero;stroke:#000000;stroke-width:0.70999998;stroke-linecap:round;stroke-linejoin:round;stroke-miterlimit:10;stroke-dasharray:none;stroke-opacity:1"
           d="m 351.56,127.74 c 0,4.31 3.52,7.83 7.82,7.83 4.3,0 7.82,-3.52 7.82,-7.83 0,-4.3 -3.52,-7.82 -7.82,-7.82 -4.3,0 -7.82,3.52 -7.82,7.82" /><path
           inkscape:connector-curvature="0"
           id="path116"
           style="fill:#000000;fill-opacity:1;fill-rule:nonzero;stroke:#000000;stroke-width:0.70999998;stroke-linecap:round;stroke-linejoin:round;stroke-miterlimit:10;stroke-dasharray:none;stroke-opacity:1"
           d="m 381.68,145.14 c 0,4.3 3.53,7.82 7.83,7.82 4.3,0 7.82,-3.52 7.82,-7.82 0,-4.31 -3.52,-7.83 -7.82,-7.83 -4.3,0 -7.83,3.52 -7.83,7.83" /><path
           inkscape:connector-curvature="0"
           id="path118"
           style="fill:#000000;fill-opacity:1;fill-rule:nonzero;stroke:#000000;stroke-width:0.70999998;stroke-linecap:round;stroke-linejoin:round;stroke-miterlimit:10;stroke-dasharray:none;stroke-opacity:1"
           d="m 411.81,127.74 c 0,4.31 3.52,7.83 7.83,7.83 4.3,0 7.82,-3.52 7.82,-7.83 0,-4.3 -3.52,-7.82 -7.82,-7.82 -4.31,0 -7.83,3.52 -7.83,7.82" /><path
           inkscape:connector-curvature="0"
           id="path120"
           style="fill:#000000;fill-opacity:1;fill-rule:nonzero;stroke:#000000;stroke-width:0.70999998;stroke-linecap:round;stroke-linejoin:round;stroke-miterlimit:10;stroke-dasharray:none;stroke-opacity:1"
           d="m 261.17,179.93 c 0,4.3 3.52,7.82 7.82,7.82 4.3,0 7.83,-3.52 7.83,-7.82 0,-4.31 -3.53,-7.83 -7.83,-7.83 -4.3,0 -7.82,3.52 -7.82,7.83" /><path
           inkscape:connector-curvature="0"
           id="path122"
           style="fill:#000000;fill-opacity:1;fill-rule:nonzero;stroke:#000000;stroke-width:0.70999998;stroke-linecap:round;stroke-linejoin:round;stroke-miterlimit:10;stroke-dasharray:none;stroke-opacity:1"
           d="m 291.3,197.32 c 0,4.31 3.52,7.83 7.82,7.83 4.3,0 7.82,-3.52 7.82,-7.83 0,-4.3 -3.52,-7.82 -7.82,-7.82 -4.3,0 -7.82,3.52 -7.82,7.82" /><path
           inkscape:connector-curvature="0"
           id="path124"
           style="fill:#000000;fill-opacity:1;fill-rule:nonzero;stroke:#000000;stroke-width:0.70999998;stroke-linecap:round;stroke-linejoin:round;stroke-miterlimit:10;stroke-dasharray:none;stroke-opacity:1"
           d="m 321.43,179.93 c 0,4.3 3.52,7.82 7.82,7.82 4.3,0 7.82,-3.52 7.82,-7.82 0,-4.31 -3.52,-7.83 -7.82,-7.83 -4.3,0 -7.82,3.52 -7.82,7.83" /><path
           inkscape:connector-curvature="0"
           id="path126"
           style="fill:#000000;fill-opacity:1;fill-rule:nonzero;stroke:#000000;stroke-width:0.70999998;stroke-linecap:round;stroke-linejoin:round;stroke-miterlimit:10;stroke-dasharray:none;stroke-opacity:1"
           d="m 351.56,197.32 c 0,4.31 3.52,7.83 7.82,7.83 4.3,0 7.82,-3.52 7.82,-7.83 0,-4.3 -3.52,-7.82 -7.82,-7.82 -4.3,0 -7.82,3.52 -7.82,7.82" /><path
           inkscape:connector-curvature="0"
           id="path128"
           style="fill:#000000;fill-opacity:1;fill-rule:nonzero;stroke:#000000;stroke-width:0.70999998;stroke-linecap:round;stroke-linejoin:round;stroke-miterlimit:10;stroke-dasharray:none;stroke-opacity:1"
           d="m 381.68,179.93 c 0,4.3 3.53,7.82 7.83,7.82 4.3,0 7.82,-3.52 7.82,-7.82 0,-4.31 -3.52,-7.83 -7.82,-7.83 -4.3,0 -7.83,3.52 -7.83,7.83" /><path
           inkscape:connector-curvature="0"
           id="path130"
           style="fill:#000000;fill-opacity:1;fill-rule:nonzero;stroke:#000000;stroke-width:0.70999998;stroke-linecap:round;stroke-linejoin:round;stroke-miterlimit:10;stroke-dasharray:none;stroke-opacity:1"
           d="m 291.3,232.11 c 0,4.31 3.52,7.83 7.82,7.83 4.3,0 7.82,-3.52 7.82,-7.83 0,-4.3 -3.52,-7.82 -7.82,-7.82 -4.3,0 -7.82,3.52 -7.82,7.82" /><path
           inkscape:connector-curvature="0"
           id="path132"
           style="fill:#000000;fill-opacity:1;fill-rule:nonzero;stroke:#000000;stroke-width:0.70999998;stroke-linecap:round;stroke-linejoin:round;stroke-miterlimit:10;stroke-dasharray:none;stroke-opacity:1"
           d="m 321.43,249.51 c 0,4.3 3.52,7.82 7.82,7.82 4.3,0 7.82,-3.52 7.82,-7.82 0,-4.31 -3.52,-7.83 -7.82,-7.83 -4.3,0 -7.82,3.52 -7.82,7.83" /><path
           inkscape:connector-curvature="0"
           id="path134"
           style="fill:#000000;fill-opacity:1;fill-rule:nonzero;stroke:#000000;stroke-width:0.70999998;stroke-linecap:round;stroke-linejoin:round;stroke-miterlimit:10;stroke-dasharray:none;stroke-opacity:1"
           d="m 351.56,232.11 c 0,4.31 3.52,7.83 7.82,7.83 4.3,0 7.82,-3.52 7.82,-7.83 0,-4.3 -3.52,-7.82 -7.82,-7.82 -4.3,0 -7.82,3.52 -7.82,7.82" /><path
           inkscape:connector-curvature="0"
           id="path136"
           style="fill:#000000;fill-opacity:1;fill-rule:nonzero;stroke:#000000;stroke-width:0.70999998;stroke-linecap:round;stroke-linejoin:round;stroke-miterlimit:10;stroke-dasharray:none;stroke-opacity:1"
           d="m 321.43,284.3 c 0,4.3 3.52,7.82 7.82,7.82 4.3,0 7.82,-3.52 7.82,-7.82 0,-4.31 -3.52,-7.83 -7.82,-7.83 -4.3,0 -7.82,3.52 -7.82,7.83" /><text
           id="text138"
           style="font-size:11px;-inkscape-font-specification:Nimbus Sans L;writing-mode:lr-tb;font-family:Nimbus Sans L;fill-opacity:1;fill-rule:nonzero;stroke:none;font-stretch:normal;font-variant:normal;font-weight:normal;font-style:normal;fill:#ffffff"
           transform="matrix(1,0,0,-1,202.62,71.61)"><tspan
             id="tspan140"
             sodipodi:role="line"
             y="0"
             x="0">11</tspan></text>
<text
           id="text142"
           style="font-size:11px;-inkscape-font-specification:Nimbus Sans L;writing-mode:lr-tb;font-family:Nimbus Sans L;fill-opacity:1;fill-rule:nonzero;stroke:none;font-stretch:normal;font-variant:normal;font-weight:normal;font-style:normal;fill:#ffffff"
           transform="matrix(1,0,0,-1,232.75,89)"><tspan
             id="tspan144"
             sodipodi:role="line"
             y="0"
             x="0">12</tspan></text>
<text
           id="text146"
           style="font-size:11px;-inkscape-font-specification:Nimbus Sans L;writing-mode:lr-tb;font-family:Nimbus Sans L;fill-opacity:1;fill-rule:nonzero;stroke:none;font-stretch:normal;font-variant:normal;font-weight:normal;font-style:normal;fill:#ffffff"
           transform="matrix(1,0,0,-1,262.88,71.61)"><tspan
             id="tspan148"
             sodipodi:role="line"
             y="0"
             x="0">13</tspan></text>
<text
           id="text150"
           style="font-size:11px;-inkscape-font-specification:Nimbus Sans L;writing-mode:lr-tb;font-family:Nimbus Sans L;fill-opacity:1;fill-rule:nonzero;stroke:none;font-stretch:normal;font-variant:normal;font-weight:normal;font-style:normal;fill:#ffffff"
           transform="matrix(1,0,0,-1,293,89)"><tspan
             id="tspan152"
             sodipodi:role="line"
             y="0"
             x="0">14</tspan></text>
<text
           id="text154"
           style="font-size:11px;-inkscape-font-specification:Nimbus Sans L;writing-mode:lr-tb;font-family:Nimbus Sans L;fill-opacity:1;fill-rule:nonzero;stroke:none;font-stretch:normal;font-variant:normal;font-weight:normal;font-style:normal;fill:#ffffff"
           transform="matrix(1,0,0,-1,323.13,71.61)"><tspan
             id="tspan156"
             sodipodi:role="line"
             y="0"
             x="0">15</tspan></text>
<text
           id="text158"
           style="font-size:11px;-inkscape-font-specification:Nimbus Sans L;writing-mode:lr-tb;font-family:Nimbus Sans L;fill-opacity:1;fill-rule:nonzero;stroke:none;font-stretch:normal;font-variant:normal;font-weight:normal;font-style:normal;fill:#ffffff"
           transform="matrix(1,0,0,-1,353.26,89)"><tspan
             id="tspan160"
             sodipodi:role="line"
             y="0"
             x="0">16</tspan></text>
<text
           id="text162"
           style="font-size:11px;-inkscape-font-specification:Nimbus Sans L;writing-mode:lr-tb;font-family:Nimbus Sans L;fill-opacity:1;fill-rule:nonzero;stroke:none;font-stretch:normal;font-variant:normal;font-weight:normal;font-style:normal;fill:#ffffff"
           transform="matrix(1,0,0,-1,383.39,71.61)"><tspan
             id="tspan164"
             sodipodi:role="line"
             y="0"
             x="0">17</tspan></text>
<text
           id="text166"
           style="font-size:11px;-inkscape-font-specification:Nimbus Sans L;writing-mode:lr-tb;font-family:Nimbus Sans L;fill-opacity:1;fill-rule:nonzero;stroke:none;font-stretch:normal;font-variant:normal;font-weight:normal;font-style:normal;fill:#ffffff"
           transform="matrix(1,0,0,-1,413.52,89)"><tspan
             id="tspan168"
             sodipodi:role="line"
             y="0"
             x="0">18</tspan></text>
<text
           id="text170"
           style="font-size:11px;-inkscape-font-specification:Nimbus Sans L;writing-mode:lr-tb;font-family:Nimbus Sans L;fill-opacity:1;fill-rule:nonzero;stroke:none;font-stretch:normal;font-variant:normal;font-weight:normal;font-style:normal;fill:#ffffff"
           transform="matrix(1,0,0,-1,443.65,71.61)"><tspan
             id="tspan172"
             sodipodi:role="line"
             y="0"
             x="0">19</tspan></text>
<text
           id="text174"
           style="font-size:11px;-inkscape-font-specification:Nimbus Sans L;writing-mode:lr-tb;font-family:Nimbus Sans L;fill-opacity:1;fill-rule:nonzero;stroke:none;font-stretch:normal;font-variant:normal;font-weight:normal;font-style:normal;fill:#ffffff"
           transform="matrix(1,0,0,-1,232.75,123.79)"><tspan
             id="tspan176"
             sodipodi:role="line"
             y="0"
             x="0">21</tspan></text>
<text
           id="text178"
           style="font-size:11px;-inkscape-font-specification:Nimbus Sans L;writing-mode:lr-tb;font-family:Nimbus Sans L;fill-opacity:1;fill-rule:nonzero;stroke:none;font-stretch:normal;font-variant:normal;font-weight:normal;font-style:normal;fill:#ffffff"
           transform="matrix(1,0,0,-1,262.88,141.19)"><tspan
             id="tspan180"
             sodipodi:role="line"
             y="0"
             x="0">22</tspan></text>
<text
           id="text182"
           style="font-size:11px;-inkscape-font-specification:Nimbus Sans L;writing-mode:lr-tb;font-family:Nimbus Sans L;fill-opacity:1;fill-rule:nonzero;stroke:none;font-stretch:normal;font-variant:normal;font-weight:normal;font-style:normal;fill:#ffffff"
           transform="matrix(1,0,0,-1,293,123.79)"><tspan
             id="tspan184"
             sodipodi:role="line"
             y="0"
             x="0">23</tspan></text>
<text
           id="text186"
           style="font-size:11px;-inkscape-font-specification:Nimbus Sans L;writing-mode:lr-tb;font-family:Nimbus Sans L;fill-opacity:1;fill-rule:nonzero;stroke:none;font-stretch:normal;font-variant:normal;font-weight:normal;font-style:normal;fill:#ffffff"
           transform="matrix(1,0,0,-1,323.13,141.19)"><tspan
             id="tspan188"
             sodipodi:role="line"
             y="0"
             x="0">24</tspan></text>
<text
           id="text190"
           style="font-size:11px;-inkscape-font-specification:Nimbus Sans L;writing-mode:lr-tb;font-family:Nimbus Sans L;fill-opacity:1;fill-rule:nonzero;stroke:none;font-stretch:normal;font-variant:normal;font-weight:normal;font-style:normal;fill:#ffffff"
           transform="matrix(1,0,0,-1,353.26,123.79)"><tspan
             id="tspan192"
             sodipodi:role="line"
             y="0"
             x="0">25</tspan></text>
<text
           id="text194"
           style="font-size:11px;-inkscape-font-specification:Nimbus Sans L;writing-mode:lr-tb;font-family:Nimbus Sans L;fill-opacity:1;fill-rule:nonzero;stroke:none;font-stretch:normal;font-variant:normal;font-weight:normal;font-style:normal;fill:#ffffff"
           transform="matrix(1,0,0,-1,383.39,141.19)"><tspan
             id="tspan196"
             sodipodi:role="line"
             y="0"
             x="0">26</tspan></text>
<text
           id="text198"
           style="font-size:11px;-inkscape-font-specification:Nimbus Sans L;writing-mode:lr-tb;font-family:Nimbus Sans L;fill-opacity:1;fill-rule:nonzero;stroke:none;font-stretch:normal;font-variant:normal;font-weight:normal;font-style:normal;fill:#ffffff"
           transform="matrix(1,0,0,-1,413.52,123.79)"><tspan
             id="tspan200"
             sodipodi:role="line"
             y="0"
             x="0">27</tspan></text>
<text
           id="text202"
           style="font-size:11px;-inkscape-font-specification:Nimbus Sans L;writing-mode:lr-tb;font-family:Nimbus Sans L;fill-opacity:1;fill-rule:nonzero;stroke:none;font-stretch:normal;font-variant:normal;font-weight:normal;font-style:normal;fill:#ffffff"
           transform="matrix(1,0,0,-1,262.88,175.98)"><tspan
             id="tspan204"
             sodipodi:role="line"
             y="0"
             x="0">31</tspan></text>
<text
           id="text206"
           style="font-size:11px;-inkscape-font-specification:Nimbus Sans L;writing-mode:lr-tb;font-family:Nimbus Sans L;fill-opacity:1;fill-rule:nonzero;stroke:none;font-stretch:normal;font-variant:normal;font-weight:normal;font-style:normal;fill:#ffffff"
           transform="matrix(1,0,0,-1,293,193.37)"><tspan
             id="tspan208"
             sodipodi:role="line"
             y="0"
             x="0">32</tspan></text>
<text
           id="text210"
           style="font-size:11px;-inkscape-font-specification:Nimbus Sans L;writing-mode:lr-tb;font-family:Nimbus Sans L;fill-opacity:1;fill-rule:nonzero;stroke:none;font-stretch:normal;font-variant:normal;font-weight:normal;font-style:normal;fill:#ffffff"
           transform="matrix(1,0,0,-1,323.13,175.98)"><tspan
             id="tspan212"
             sodipodi:role="line"
             y="0"
             x="0">33</tspan></text>
<text
           id="text214"
           style="font-size:11px;-inkscape-font-specification:Nimbus Sans L;writing-mode:lr-tb;font-family:Nimbus Sans L;fill-opacity:1;fill-rule:nonzero;stroke:none;font-stretch:normal;font-variant:normal;font-weight:normal;font-style:normal;fill:#ffffff"
           transform="matrix(1,0,0,-1,353.26,193.37)"><tspan
             id="tspan216"
             sodipodi:role="line"
             y="0"
             x="0">34</tspan></text>
<text
           id="text218"
           style="font-size:11px;-inkscape-font-specification:Nimbus Sans L;writing-mode:lr-tb;font-family:Nimbus Sans L;fill-opacity:1;fill-rule:nonzero;stroke:none;font-stretch:normal;font-variant:normal;font-weight:normal;font-style:normal;fill:#ffffff"
           transform="matrix(1,0,0,-1,383.39,175.98)"><tspan
             id="tspan220"
             sodipodi:role="line"
             y="0"
             x="0">35</tspan></text>
<text
           id="text222"
           style="font-size:11px;-inkscape-font-specification:Nimbus Sans L;writing-mode:lr-tb;font-family:Nimbus Sans L;fill-opacity:1;fill-rule:nonzero;stroke:none;font-stretch:normal;font-variant:normal;font-weight:normal;font-style:normal;fill:#ffffff"
           transform="matrix(1,0,0,-1,293,228.16)"><tspan
             id="tspan224"
             sodipodi:role="line"
             y="0"
             x="0">41</tspan></text>
<text
           id="text226"
           style="font-size:11px;-inkscape-font-specification:Nimbus Sans L;writing-mode:lr-tb;font-family:Nimbus Sans L;fill-opacity:1;fill-rule:nonzero;stroke:none;font-stretch:normal;font-variant:normal;font-weight:normal;font-style:normal;fill:#ffffff"
           transform="matrix(1,0,0,-1,323.13,245.56)"><tspan
             id="tspan228"
             sodipodi:role="line"
             y="0"
             x="0">42</tspan></text>
<text
           id="text230"
           style="font-size:11px;-inkscape-font-specification:Nimbus Sans L;writing-mode:lr-tb;font-family:Nimbus Sans L;fill-opacity:1;fill-rule:nonzero;stroke:none;font-stretch:normal;font-variant:normal;font-weight:normal;font-style:normal;fill:#ffffff"
           transform="matrix(1,0,0,-1,353.26,228.16)"><tspan
             id="tspan232"
             sodipodi:role="line"
             y="0"
             x="0">43</tspan></text>
<text
           id="text234"
           style="font-size:11px;-inkscape-font-specification:Nimbus Sans L;writing-mode:lr-tb;font-family:Nimbus Sans L;fill-opacity:1;fill-rule:nonzero;stroke:none;font-stretch:normal;font-variant:normal;font-weight:normal;font-style:normal;fill:#ffffff"
           transform="matrix(1,0,0,-1,323.13,280.35)"><tspan
             id="tspan236"
             sodipodi:role="line"
             y="0"
             x="0">51</tspan></text>
</g></g><g
       id="g238" /><g
       id="g240" /><g
       id="g242" /><g
       id="g244" /><g
       id="g246" /><g
       id="g248" /><g
       id="g250" /><g
       id="g252" /></g></svg>