<?xml version="1.0" encoding="UTF-8" standalone="no"?>
<!-- Created with Inkscape (http://www.inkscape.org/) -->

<svg
   xmlns:dc="http://purl.org/dc/elements/1.1/"
   xmlns:cc="http://creativecommons.org/ns#"
   xmlns:rdf="http://www.w3.org/1999/02/22-rdf-syntax-ns#"
   xmlns:svg="http://www.w3.org/2000/svg"
   xmlns="http://www.w3.org/2000/svg"
   xmlns:sodipodi="http://sodipodi.sourceforge.net/DTD/sodipodi-0.dtd"
   xmlns:inkscape="http://www.inkscape.org/namespaces/inkscape"
   id="svg2"
   version="1.1"
   inkscape:version="0.91 r13725"
   xml:space="preserve"
   width="377.94989"
   height="327.49994"
   viewBox="0 0 377.94989 327.49994"
   sodipodi:docname="tern_quant.svg"><metadata
     id="metadata8"><rdf:RDF><cc:Work
         rdf:about=""><dc:format>image/svg+xml</dc:format><dc:type
           rdf:resource="http://purl.org/dc/dcmitype/StillImage" /><dc:title></dc:title></cc:Work></rdf:RDF></metadata><defs
     id="defs6"><clipPath
       clipPathUnits="userSpaceOnUse"
       id="clipPath20"><path
         d="m 112.37,0 433.76,0 0,377.25 -433.76,0 0,-377.25 z"
         id="path22"
         inkscape:connector-curvature="0" /></clipPath><clipPath
       clipPathUnits="userSpaceOnUse"
       id="clipPath34"><path
         d="m 118.35,5.98 421.81,0 0,365.29 -421.81,0 0,-365.29 z"
         id="path36"
         inkscape:connector-curvature="0" /></clipPath></defs><sodipodi:namedview
     pagecolor="#ffffff"
     bordercolor="#666666"
     borderopacity="1"
     objecttolerance="10"
     gridtolerance="10"
     guidetolerance="10"
     inkscape:pageopacity="1"
     inkscape:pageshadow="2"
     inkscape:window-width="1920"
     inkscape:window-height="1056"
     id="namedview4"
     showgrid="false"
     fit-margin-top="0"
     fit-margin-left="0"
     fit-margin-right="0"
     fit-margin-bottom="0"
     inkscape:zoom="1.6924012"
     inkscape:cx="118.93334"
     inkscape:cy="163.59375"
     inkscape:window-x="0"
     inkscape:window-y="24"
     inkscape:window-maximized="1"
     inkscape:current-layer="g10" /><g
     id="g10"
     inkscape:groupmode="layer"
     inkscape:label="tern_quant"
     transform="matrix(1.25,0,0,-1.25,-222.5813,399.53118)"><g
       id="g12" /><g
       id="g14" /><g
       id="g16"><g
         id="g18"
         clip-path="url(#clipPath20)" /></g><g
       id="g24" /><g
       id="g26" /><g
       id="g28" /><g
       id="g30"><g
         id="g32"
         clip-path="url(#clipPath34)"><path
           d="m 178.6,58.16 30.13,52.19 30.13,-52.19 -60.26,0 z"
           style="fill:#ff9fff;fill-opacity:1;fill-rule:nonzero;stroke:#000000;stroke-width:1.07000005;stroke-linecap:round;stroke-linejoin:round;stroke-miterlimit:10;stroke-dasharray:none;stroke-opacity:1"
           id="path38"
           inkscape:connector-curvature="0" /><path
           d="m 268.99,110.35 -30.13,-52.19 -30.13,52.19 60.26,0 z"
           style="fill:#ffb5ff;fill-opacity:1;fill-rule:nonzero;stroke:#000000;stroke-width:1.07000005;stroke-linecap:round;stroke-linejoin:round;stroke-miterlimit:10;stroke-dasharray:none;stroke-opacity:1"
           id="path40"
           inkscape:connector-curvature="0" /><path
           d="m 238.86,58.16 30.13,52.19 30.13,-52.19 -60.26,0 z"
           style="fill:#e7cfff;fill-opacity:1;fill-rule:nonzero;stroke:#000000;stroke-width:1.07000005;stroke-linecap:round;stroke-linejoin:round;stroke-miterlimit:10;stroke-dasharray:none;stroke-opacity:1"
           id="path42"
           inkscape:connector-curvature="0" /><path
           d="m 329.25,110.35 -30.13,-52.19 -30.13,52.19 60.26,0 z"
           style="fill:#d1dcff;fill-opacity:1;fill-rule:nonzero;stroke:#000000;stroke-width:1.07000005;stroke-linecap:round;stroke-linejoin:round;stroke-miterlimit:10;stroke-dasharray:none;stroke-opacity:1"
           id="path44"
           inkscape:connector-curvature="0" /><path
           d="m 299.12,58.16 30.13,52.19 30.13,-52.19 -60.26,0 z"
           style="fill:#60edff;fill-opacity:1;fill-rule:nonzero;stroke:#000000;stroke-width:1.07000005;stroke-linecap:round;stroke-linejoin:round;stroke-miterlimit:10;stroke-dasharray:none;stroke-opacity:1"
           id="path46"
           inkscape:connector-curvature="0" /><path
           d="m 389.51,110.35 -30.13,-52.19 -30.13,52.19 60.26,0 z"
           style="fill:#12f6ff;fill-opacity:1;fill-rule:nonzero;stroke:#000000;stroke-width:1.07000005;stroke-linecap:round;stroke-linejoin:round;stroke-miterlimit:10;stroke-dasharray:none;stroke-opacity:1"
           id="path48"
           inkscape:connector-curvature="0" /><path
           d="m 359.38,58.16 30.13,52.19 30.13,-52.19 -60.26,0 z"
           style="fill:#00ffff;fill-opacity:1;fill-rule:nonzero;stroke:#000000;stroke-width:1.07000005;stroke-linecap:round;stroke-linejoin:round;stroke-miterlimit:10;stroke-dasharray:none;stroke-opacity:1"
           id="path50"
           inkscape:connector-curvature="0" /><path
           d="m 449.77,110.35 -30.13,-52.19 -30.13,52.19 60.26,0 z"
           style="fill:#00ffff;fill-opacity:1;fill-rule:nonzero;stroke:#000000;stroke-width:1.07000005;stroke-linecap:round;stroke-linejoin:round;stroke-miterlimit:10;stroke-dasharray:none;stroke-opacity:1"
           id="path52"
           inkscape:connector-curvature="0" /><path
           d="m 419.64,58.16 30.13,52.19 30.12,-52.19 -60.25,0 z"
           style="fill:#00ffff;fill-opacity:1;fill-rule:nonzero;stroke:#000000;stroke-width:1.07000005;stroke-linecap:round;stroke-linejoin:round;stroke-miterlimit:10;stroke-dasharray:none;stroke-opacity:1"
           id="path54"
           inkscape:connector-curvature="0" /><path
           d="m 208.73,110.35 30.13,52.18 30.13,-52.18 -60.26,0 z"
           style="fill:#ffacff;fill-opacity:1;fill-rule:nonzero;stroke:#000000;stroke-width:1.07000005;stroke-linecap:round;stroke-linejoin:round;stroke-miterlimit:10;stroke-dasharray:none;stroke-opacity:1"
           id="path56"
           inkscape:connector-curvature="0" /><path
           d="m 299.12,162.53 -30.13,-52.18 -30.13,52.18 60.26,0 z"
           style="fill:#ffbff4;fill-opacity:1;fill-rule:nonzero;stroke:#000000;stroke-width:1.07000005;stroke-linecap:round;stroke-linejoin:round;stroke-miterlimit:10;stroke-dasharray:none;stroke-opacity:1"
           id="path58"
           inkscape:connector-curvature="0" /><path
           d="m 268.99,110.35 30.13,52.18 30.13,-52.18 -60.26,0 z"
           style="fill:#fcd6ff;fill-opacity:1;fill-rule:nonzero;stroke:#000000;stroke-width:1.07000005;stroke-linecap:round;stroke-linejoin:round;stroke-miterlimit:10;stroke-dasharray:none;stroke-opacity:1"
           id="path60"
           inkscape:connector-curvature="0" /><path
           d="m 359.38,162.53 -30.13,-52.18 -30.13,52.18 60.26,0 z"
           style="fill:#e2e2e2;fill-opacity:1;fill-rule:nonzero;stroke:#000000;stroke-width:1.07000005;stroke-linecap:round;stroke-linejoin:round;stroke-miterlimit:10;stroke-dasharray:none;stroke-opacity:1"
           id="path62"
           inkscape:connector-curvature="0" /><path
           d="m 329.25,110.35 30.13,52.18 30.13,-52.18 -60.26,0 z"
           style="fill:#97f1f4;fill-opacity:1;fill-rule:nonzero;stroke:#000000;stroke-width:1.07000005;stroke-linecap:round;stroke-linejoin:round;stroke-miterlimit:10;stroke-dasharray:none;stroke-opacity:1"
           id="path64"
           inkscape:connector-curvature="0" /><path
           d="m 419.64,162.53 -30.13,-52.18 -30.13,52.18 60.26,0 z"
           style="fill:#6efad1;fill-opacity:1;fill-rule:nonzero;stroke:#000000;stroke-width:1.07000005;stroke-linecap:round;stroke-linejoin:round;stroke-miterlimit:10;stroke-dasharray:none;stroke-opacity:1"
           id="path66"
           inkscape:connector-curvature="0" /><path
           d="m 389.51,110.35 30.13,52.18 30.13,-52.18 -60.26,0 z"
           style="fill:#00ffe2;fill-opacity:1;fill-rule:nonzero;stroke:#000000;stroke-width:1.07000005;stroke-linecap:round;stroke-linejoin:round;stroke-miterlimit:10;stroke-dasharray:none;stroke-opacity:1"
           id="path68"
           inkscape:connector-curvature="0" /><path
           d="m 238.86,162.53 30.13,52.19 30.13,-52.19 -60.26,0 z"
           style="fill:#ffb8c1;fill-opacity:1;fill-rule:nonzero;stroke:#000000;stroke-width:1.07000005;stroke-linecap:round;stroke-linejoin:round;stroke-miterlimit:10;stroke-dasharray:none;stroke-opacity:1"
           id="path70"
           inkscape:connector-curvature="0" /><path
           d="m 329.25,214.72 -30.13,-52.19 -30.13,52.19 60.26,0 z"
           style="fill:#ffca9d;fill-opacity:1;fill-rule:nonzero;stroke:#000000;stroke-width:1.07000005;stroke-linecap:round;stroke-linejoin:round;stroke-miterlimit:10;stroke-dasharray:none;stroke-opacity:1"
           id="path72"
           inkscape:connector-curvature="0" /><path
           d="m 299.12,162.53 30.13,52.19 30.13,-52.19 -60.26,0 z"
           style="fill:#ffdeae;fill-opacity:1;fill-rule:nonzero;stroke:#000000;stroke-width:1.07000005;stroke-linecap:round;stroke-linejoin:round;stroke-miterlimit:10;stroke-dasharray:none;stroke-opacity:1"
           id="path74"
           inkscape:connector-curvature="0" /><path
           d="m 389.51,214.72 -30.13,-52.19 -30.13,52.19 60.26,0 z"
           style="fill:#e1e989;fill-opacity:1;fill-rule:nonzero;stroke:#000000;stroke-width:1.07000005;stroke-linecap:round;stroke-linejoin:round;stroke-miterlimit:10;stroke-dasharray:none;stroke-opacity:1"
           id="path76"
           inkscape:connector-curvature="0" /><path
           d="m 359.38,162.53 30.13,52.19 30.13,-52.19 -60.26,0 z"
           style="fill:#a2f79b;fill-opacity:1;fill-rule:nonzero;stroke:#000000;stroke-width:1.07000005;stroke-linecap:round;stroke-linejoin:round;stroke-miterlimit:10;stroke-dasharray:none;stroke-opacity:1"
           id="path78"
           inkscape:connector-curvature="0" /><path
           d="m 268.99,214.72 30.13,52.18 30.13,-52.18 -60.26,0 z"
           style="fill:#ffc566;fill-opacity:1;fill-rule:nonzero;stroke:#000000;stroke-width:1.07000005;stroke-linecap:round;stroke-linejoin:round;stroke-miterlimit:10;stroke-dasharray:none;stroke-opacity:1"
           id="path80"
           inkscape:connector-curvature="0" /><path
           d="m 359.38,266.9 -30.13,-52.18 -30.13,52.18 60.26,0 z"
           style="fill:#ffd533;fill-opacity:1;fill-rule:nonzero;stroke:#000000;stroke-width:1.07000005;stroke-linecap:round;stroke-linejoin:round;stroke-miterlimit:10;stroke-dasharray:none;stroke-opacity:1"
           id="path82"
           inkscape:connector-curvature="0" /><path
           d="m 329.25,214.72 30.13,52.18 30.13,-52.18 -60.26,0 z"
           style="fill:#f5e64b;fill-opacity:1;fill-rule:nonzero;stroke:#000000;stroke-width:1.07000005;stroke-linecap:round;stroke-linejoin:round;stroke-miterlimit:10;stroke-dasharray:none;stroke-opacity:1"
           id="path84"
           inkscape:connector-curvature="0" /><path
           d="m 299.12,266.9 30.13,52.19 30.13,-52.19 -60.26,0 z"
           style="fill:#ffd100;fill-opacity:1;fill-rule:nonzero;stroke:#000000;stroke-width:1.07000005;stroke-linecap:round;stroke-linejoin:round;stroke-miterlimit:10;stroke-dasharray:none;stroke-opacity:1"
           id="path86"
           inkscape:connector-curvature="0" /><path
           d="m 200.91,75.56 c 0,4.3 3.52,7.82 7.82,7.82 4.31,0 7.83,-3.52 7.83,-7.82 0,-4.31 -3.52,-7.83 -7.83,-7.83 -4.3,0 -7.82,3.52 -7.82,7.83"
           style="fill:#000000;fill-opacity:1;fill-rule:nonzero;stroke:#000000;stroke-width:0.70999998;stroke-linecap:round;stroke-linejoin:round;stroke-miterlimit:10;stroke-dasharray:none;stroke-opacity:1"
           id="path88"
           inkscape:connector-curvature="0" /><path
           d="m 231.04,92.95 c 0,4.31 3.52,7.83 7.82,7.83 4.31,0 7.83,-3.52 7.83,-7.83 0,-4.3 -3.52,-7.82 -7.83,-7.82 -4.3,0 -7.82,3.52 -7.82,7.82"
           style="fill:#000000;fill-opacity:1;fill-rule:nonzero;stroke:#000000;stroke-width:0.70999998;stroke-linecap:round;stroke-linejoin:round;stroke-miterlimit:10;stroke-dasharray:none;stroke-opacity:1"
           id="path90"
           inkscape:connector-curvature="0" /><path
           d="m 261.17,75.56 c 0,4.3 3.52,7.82 7.82,7.82 4.3,0 7.83,-3.52 7.83,-7.82 0,-4.31 -3.53,-7.83 -7.83,-7.83 -4.3,0 -7.82,3.52 -7.82,7.83"
           style="fill:#000000;fill-opacity:1;fill-rule:nonzero;stroke:#000000;stroke-width:0.70999998;stroke-linecap:round;stroke-linejoin:round;stroke-miterlimit:10;stroke-dasharray:none;stroke-opacity:1"
           id="path92"
           inkscape:connector-curvature="0" /><path
           d="m 291.3,92.95 c 0,4.31 3.52,7.83 7.82,7.83 4.3,0 7.82,-3.52 7.82,-7.83 0,-4.3 -3.52,-7.82 -7.82,-7.82 -4.3,0 -7.82,3.52 -7.82,7.82"
           style="fill:#000000;fill-opacity:1;fill-rule:nonzero;stroke:#000000;stroke-width:0.70999998;stroke-linecap:round;stroke-linejoin:round;stroke-miterlimit:10;stroke-dasharray:none;stroke-opacity:1"
           id="path94"
           inkscape:connector-curvature="0" /><path
           d="m 321.43,75.56 c 0,4.3 3.52,7.82 7.82,7.82 4.3,0 7.82,-3.52 7.82,-7.82 0,-4.31 -3.52,-7.83 -7.82,-7.83 -4.3,0 -7.82,3.52 -7.82,7.83"
           style="fill:#000000;fill-opacity:1;fill-rule:nonzero;stroke:#000000;stroke-width:0.70999998;stroke-linecap:round;stroke-linejoin:round;stroke-miterlimit:10;stroke-dasharray:none;stroke-opacity:1"
           id="path96"
           inkscape:connector-curvature="0" /><path
           d="m 351.56,92.95 c 0,4.31 3.52,7.83 7.82,7.83 4.3,0 7.82,-3.52 7.82,-7.83 0,-4.3 -3.52,-7.82 -7.82,-7.82 -4.3,0 -7.82,3.52 -7.82,7.82"
           style="fill:#000000;fill-opacity:1;fill-rule:nonzero;stroke:#000000;stroke-width:0.70999998;stroke-linecap:round;stroke-linejoin:round;stroke-miterlimit:10;stroke-dasharray:none;stroke-opacity:1"
           id="path98"
           inkscape:connector-curvature="0" /><path
           d="m 381.68,75.56 c 0,4.3 3.53,7.82 7.83,7.82 4.3,0 7.82,-3.52 7.82,-7.82 0,-4.31 -3.52,-7.83 -7.82,-7.83 -4.3,0 -7.83,3.52 -7.83,7.83"
           style="fill:#000000;fill-opacity:1;fill-rule:nonzero;stroke:#000000;stroke-width:0.70999998;stroke-linecap:round;stroke-linejoin:round;stroke-miterlimit:10;stroke-dasharray:none;stroke-opacity:1"
           id="path100"
           inkscape:connector-curvature="0" /><path
           d="m 411.81,92.95 c 0,4.31 3.52,7.83 7.83,7.83 4.3,0 7.82,-3.52 7.82,-7.83 0,-4.3 -3.52,-7.82 -7.82,-7.82 -4.31,0 -7.83,3.52 -7.83,7.82"
           style="fill:#000000;fill-opacity:1;fill-rule:nonzero;stroke:#000000;stroke-width:0.70999998;stroke-linecap:round;stroke-linejoin:round;stroke-miterlimit:10;stroke-dasharray:none;stroke-opacity:1"
           id="path102"
           inkscape:connector-curvature="0" /><path
           d="m 441.94,75.56 c 0,4.3 3.52,7.82 7.83,7.82 4.3,0 7.82,-3.52 7.82,-7.82 0,-4.31 -3.52,-7.83 -7.82,-7.83 -4.31,0 -7.83,3.52 -7.83,7.83"
           style="fill:#000000;fill-opacity:1;fill-rule:nonzero;stroke:#000000;stroke-width:0.70999998;stroke-linecap:round;stroke-linejoin:round;stroke-miterlimit:10;stroke-dasharray:none;stroke-opacity:1"
           id="path104"
           inkscape:connector-curvature="0" /><path
           d="m 231.04,127.74 c 0,4.31 3.52,7.83 7.82,7.83 4.31,0 7.83,-3.52 7.83,-7.83 0,-4.3 -3.52,-7.82 -7.83,-7.82 -4.3,0 -7.82,3.52 -7.82,7.82"
           style="fill:#000000;fill-opacity:1;fill-rule:nonzero;stroke:#000000;stroke-width:0.70999998;stroke-linecap:round;stroke-linejoin:round;stroke-miterlimit:10;stroke-dasharray:none;stroke-opacity:1"
           id="path106"
           inkscape:connector-curvature="0" /><path
           d="m 261.17,145.14 c 0,4.3 3.52,7.82 7.82,7.82 4.3,0 7.83,-3.52 7.83,-7.82 0,-4.31 -3.53,-7.83 -7.83,-7.83 -4.3,0 -7.82,3.52 -7.82,7.83"
           style="fill:#000000;fill-opacity:1;fill-rule:nonzero;stroke:#000000;stroke-width:0.70999998;stroke-linecap:round;stroke-linejoin:round;stroke-miterlimit:10;stroke-dasharray:none;stroke-opacity:1"
           id="path108"
           inkscape:connector-curvature="0" /><path
           d="m 291.3,127.74 c 0,4.31 3.52,7.83 7.82,7.83 4.3,0 7.82,-3.52 7.82,-7.83 0,-4.3 -3.52,-7.82 -7.82,-7.82 -4.3,0 -7.82,3.52 -7.82,7.82"
           style="fill:#000000;fill-opacity:1;fill-rule:nonzero;stroke:#000000;stroke-width:0.70999998;stroke-linecap:round;stroke-linejoin:round;stroke-miterlimit:10;stroke-dasharray:none;stroke-opacity:1"
           id="path110"
           inkscape:connector-curvature="0" /><path
           d="m 321.43,145.14 c 0,4.3 3.52,7.82 7.82,7.82 4.3,0 7.82,-3.52 7.82,-7.82 0,-4.31 -3.52,-7.83 -7.82,-7.83 -4.3,0 -7.82,3.52 -7.82,7.83"
           style="fill:#000000;fill-opacity:1;fill-rule:nonzero;stroke:#000000;stroke-width:0.70999998;stroke-linecap:round;stroke-linejoin:round;stroke-miterlimit:10;stroke-dasharray:none;stroke-opacity:1"
           id="path112"
           inkscape:connector-curvature="0" /><path
           d="m 351.56,127.74 c 0,4.31 3.52,7.83 7.82,7.83 4.3,0 7.82,-3.52 7.82,-7.83 0,-4.3 -3.52,-7.82 -7.82,-7.82 -4.3,0 -7.82,3.52 -7.82,7.82"
           style="fill:#000000;fill-opacity:1;fill-rule:nonzero;stroke:#000000;stroke-width:0.70999998;stroke-linecap:round;stroke-linejoin:round;stroke-miterlimit:10;stroke-dasharray:none;stroke-opacity:1"
           id="path114"
           inkscape:connector-curvature="0" /><path
           d="m 381.68,145.14 c 0,4.3 3.53,7.82 7.83,7.82 4.3,0 7.82,-3.52 7.82,-7.82 0,-4.31 -3.52,-7.83 -7.82,-7.83 -4.3,0 -7.83,3.52 -7.83,7.83"
           style="fill:#000000;fill-opacity:1;fill-rule:nonzero;stroke:#000000;stroke-width:0.70999998;stroke-linecap:round;stroke-linejoin:round;stroke-miterlimit:10;stroke-dasharray:none;stroke-opacity:1"
           id="path116"
           inkscape:connector-curvature="0" /><path
           d="m 411.81,127.74 c 0,4.31 3.52,7.83 7.83,7.83 4.3,0 7.82,-3.52 7.82,-7.83 0,-4.3 -3.52,-7.82 -7.82,-7.82 -4.31,0 -7.83,3.52 -7.83,7.82"
           style="fill:#000000;fill-opacity:1;fill-rule:nonzero;stroke:#000000;stroke-width:0.70999998;stroke-linecap:round;stroke-linejoin:round;stroke-miterlimit:10;stroke-dasharray:none;stroke-opacity:1"
           id="path118"
           inkscape:connector-curvature="0" /><path
           d="m 261.17,179.93 c 0,4.3 3.52,7.82 7.82,7.82 4.3,0 7.83,-3.52 7.83,-7.82 0,-4.31 -3.53,-7.83 -7.83,-7.83 -4.3,0 -7.82,3.52 -7.82,7.83"
           style="fill:#000000;fill-opacity:1;fill-rule:nonzero;stroke:#000000;stroke-width:0.70999998;stroke-linecap:round;stroke-linejoin:round;stroke-miterlimit:10;stroke-dasharray:none;stroke-opacity:1"
           id="path120"
           inkscape:connector-curvature="0" /><path
           d="m 291.3,197.32 c 0,4.31 3.52,7.83 7.82,7.83 4.3,0 7.82,-3.52 7.82,-7.83 0,-4.3 -3.52,-7.82 -7.82,-7.82 -4.3,0 -7.82,3.52 -7.82,7.82"
           style="fill:#000000;fill-opacity:1;fill-rule:nonzero;stroke:#000000;stroke-width:0.70999998;stroke-linecap:round;stroke-linejoin:round;stroke-miterlimit:10;stroke-dasharray:none;stroke-opacity:1"
           id="path122"
           inkscape:connector-curvature="0" /><path
           d="m 321.43,179.93 c 0,4.3 3.52,7.82 7.82,7.82 4.3,0 7.82,-3.52 7.82,-7.82 0,-4.31 -3.52,-7.83 -7.82,-7.83 -4.3,0 -7.82,3.52 -7.82,7.83"
           style="fill:#000000;fill-opacity:1;fill-rule:nonzero;stroke:#000000;stroke-width:0.70999998;stroke-linecap:round;stroke-linejoin:round;stroke-miterlimit:10;stroke-dasharray:none;stroke-opacity:1"
           id="path124"
           inkscape:connector-curvature="0" /><path
           d="m 351.56,197.32 c 0,4.31 3.52,7.83 7.82,7.83 4.3,0 7.82,-3.52 7.82,-7.83 0,-4.3 -3.52,-7.82 -7.82,-7.82 -4.3,0 -7.82,3.52 -7.82,7.82"
           style="fill:#000000;fill-opacity:1;fill-rule:nonzero;stroke:#000000;stroke-width:0.70999998;stroke-linecap:round;stroke-linejoin:round;stroke-miterlimit:10;stroke-dasharray:none;stroke-opacity:1"
           id="path126"
           inkscape:connector-curvature="0" /><path
           d="m 381.68,179.93 c 0,4.3 3.53,7.82 7.83,7.82 4.3,0 7.82,-3.52 7.82,-7.82 0,-4.31 -3.52,-7.83 -7.82,-7.83 -4.3,0 -7.83,3.52 -7.83,7.83"
           style="fill:#000000;fill-opacity:1;fill-rule:nonzero;stroke:#000000;stroke-width:0.70999998;stroke-linecap:round;stroke-linejoin:round;stroke-miterlimit:10;stroke-dasharray:none;stroke-opacity:1"
           id="path128"
           inkscape:connector-curvature="0" /><path
           d="m 291.3,232.11 c 0,4.31 3.52,7.83 7.82,7.83 4.3,0 7.82,-3.52 7.82,-7.83 0,-4.3 -3.52,-7.82 -7.82,-7.82 -4.3,0 -7.82,3.52 -7.82,7.82"
           style="fill:#000000;fill-opacity:1;fill-rule:nonzero;stroke:#000000;stroke-width:0.70999998;stroke-linecap:round;stroke-linejoin:round;stroke-miterlimit:10;stroke-dasharray:none;stroke-opacity:1"
           id="path130"
           inkscape:connector-curvature="0" /><path
           d="m 321.43,249.51 c 0,4.3 3.52,7.82 7.82,7.82 4.3,0 7.82,-3.52 7.82,-7.82 0,-4.31 -3.52,-7.83 -7.82,-7.83 -4.3,0 -7.82,3.52 -7.82,7.83"
           style="fill:#000000;fill-opacity:1;fill-rule:nonzero;stroke:#000000;stroke-width:0.70999998;stroke-linecap:round;stroke-linejoin:round;stroke-miterlimit:10;stroke-dasharray:none;stroke-opacity:1"
           id="path132"
           inkscape:connector-curvature="0" /><path
           d="m 351.56,232.11 c 0,4.31 3.52,7.83 7.82,7.83 4.3,0 7.82,-3.52 7.82,-7.83 0,-4.3 -3.52,-7.82 -7.82,-7.82 -4.3,0 -7.82,3.52 -7.82,7.82"
           style="fill:#000000;fill-opacity:1;fill-rule:nonzero;stroke:#000000;stroke-width:0.70999998;stroke-linecap:round;stroke-linejoin:round;stroke-miterlimit:10;stroke-dasharray:none;stroke-opacity:1"
           id="path134"
           inkscape:connector-curvature="0" /><path
           d="m 321.43,284.3 c 0,4.3 3.52,7.82 7.82,7.82 4.3,0 7.82,-3.52 7.82,-7.82 0,-4.31 -3.52,-7.83 -7.82,-7.83 -4.3,0 -7.82,3.52 -7.82,7.83"
           style="fill:#000000;fill-opacity:1;fill-rule:nonzero;stroke:#000000;stroke-width:0.70999998;stroke-linecap:round;stroke-linejoin:round;stroke-miterlimit:10;stroke-dasharray:none;stroke-opacity:1"
           id="path136"
           inkscape:connector-curvature="0" /><text
           transform="matrix(1,0,0,-1,202.62,71.61)"
           style="font-variant:normal;font-weight:normal;font-size:11px;font-family:Roboto;-inkscape-font-specification:Roboto;writing-mode:lr-tb;fill:#ffffff;fill-opacity:1;fill-rule:nonzero;stroke:none;font-style:normal;font-stretch:normal;"
           id="text138"><tspan
             x="0"
             y="0"
             sodipodi:role="line"
             id="tspan140">11</tspan></text>
<text
           transform="matrix(1,0,0,-1,232.75,89)"
           style="font-variant:normal;font-weight:normal;font-size:11px;font-family:Roboto;-inkscape-font-specification:Roboto;writing-mode:lr-tb;fill:#ffffff;fill-opacity:1;fill-rule:nonzero;stroke:none;font-style:normal;font-stretch:normal;"
           id="text142"><tspan
             x="0"
             y="0"
             sodipodi:role="line"
             id="tspan144">12</tspan></text>
<text
           transform="matrix(1,0,0,-1,262.88,71.61)"
           style="font-variant:normal;font-weight:normal;font-size:11px;font-family:Roboto;-inkscape-font-specification:Roboto;writing-mode:lr-tb;fill:#ffffff;fill-opacity:1;fill-rule:nonzero;stroke:none;font-style:normal;font-stretch:normal;"
           id="text146"><tspan
             x="0"
             y="0"
             sodipodi:role="line"
             id="tspan148">13</tspan></text>
<text
           transform="matrix(1,0,0,-1,293,89)"
           style="font-variant:normal;font-weight:normal;font-size:11px;font-family:Roboto;-inkscape-font-specification:Roboto;writing-mode:lr-tb;fill:#ffffff;fill-opacity:1;fill-rule:nonzero;stroke:none;font-style:normal;font-stretch:normal;"
           id="text150"><tspan
             x="0"
             y="0"
             sodipodi:role="line"
             id="tspan152">14</tspan></text>
<text
           transform="matrix(1,0,0,-1,323.13,71.61)"
           style="font-variant:normal;font-weight:normal;font-size:11px;font-family:Roboto;-inkscape-font-specification:Roboto;writing-mode:lr-tb;fill:#ffffff;fill-opacity:1;fill-rule:nonzero;stroke:none;font-style:normal;font-stretch:normal;"
           id="text154"><tspan
             x="0"
             y="0"
             sodipodi:role="line"
             id="tspan156">15</tspan></text>
<text
           transform="matrix(1,0,0,-1,353.26,89)"
           style="font-variant:normal;font-weight:normal;font-size:11px;font-family:Roboto;-inkscape-font-specification:Roboto;writing-mode:lr-tb;fill:#ffffff;fill-opacity:1;fill-rule:nonzero;stroke:none;font-style:normal;font-stretch:normal;"
           id="text158"><tspan
             x="0"
             y="0"
             sodipodi:role="line"
             id="tspan160">16</tspan></text>
<text
           transform="matrix(1,0,0,-1,383.39,71.61)"
           style="font-variant:normal;font-weight:normal;font-size:11px;font-family:Roboto;-inkscape-font-specification:Roboto;writing-mode:lr-tb;fill:#ffffff;fill-opacity:1;fill-rule:nonzero;stroke:none;font-style:normal;font-stretch:normal;"
           id="text162"><tspan
             x="0"
             y="0"
             sodipodi:role="line"
             id="tspan164">17</tspan></text>
<text
           transform="matrix(1,0,0,-1,413.52,89)"
           style="font-variant:normal;font-weight:normal;font-size:11px;font-family:Roboto;-inkscape-font-specification:Roboto;writing-mode:lr-tb;fill:#ffffff;fill-opacity:1;fill-rule:nonzero;stroke:none;font-style:normal;font-stretch:normal;"
           id="text166"><tspan
             x="0"
             y="0"
             sodipodi:role="line"
             id="tspan168">18</tspan></text>
<text
           transform="matrix(1,0,0,-1,443.65,71.61)"
           style="font-variant:normal;font-weight:normal;font-size:11px;font-family:Roboto;-inkscape-font-specification:Roboto;writing-mode:lr-tb;fill:#ffffff;fill-opacity:1;fill-rule:nonzero;stroke:none;font-style:normal;font-stretch:normal;"
           id="text170"><tspan
             x="0"
             y="0"
             sodipodi:role="line"
             id="tspan172">19</tspan></text>
<text
           transform="matrix(1,0,0,-1,232.75,123.79)"
           style="font-variant:normal;font-weight:normal;font-size:11px;font-family:Roboto;-inkscape-font-specification:Roboto;writing-mode:lr-tb;fill:#ffffff;fill-opacity:1;fill-rule:nonzero;stroke:none;font-style:normal;font-stretch:normal;"
           id="text174"><tspan
             x="0"
             y="0"
             sodipodi:role="line"
             id="tspan176">21</tspan></text>
<text
           transform="matrix(1,0,0,-1,262.88,141.19)"
           style="font-variant:normal;font-weight:normal;font-size:11px;font-family:Roboto;-inkscape-font-specification:Roboto;writing-mode:lr-tb;fill:#ffffff;fill-opacity:1;fill-rule:nonzero;stroke:none;font-style:normal;font-stretch:normal;"
           id="text178"><tspan
             x="0"
             y="0"
             sodipodi:role="line"
             id="tspan180">22</tspan></text>
<text
           transform="matrix(1,0,0,-1,293,123.79)"
           style="font-variant:normal;font-weight:normal;font-size:11px;font-family:Roboto;-inkscape-font-specification:Roboto;writing-mode:lr-tb;fill:#ffffff;fill-opacity:1;fill-rule:nonzero;stroke:none;font-style:normal;font-stretch:normal;"
           id="text182"><tspan
             x="0"
             y="0"
             sodipodi:role="line"
             id="tspan184">23</tspan></text>
<text
           transform="matrix(1,0,0,-1,323.13,141.19)"
           style="font-variant:normal;font-weight:normal;font-size:11px;font-family:Roboto;-inkscape-font-specification:Roboto;writing-mode:lr-tb;fill:#ffffff;fill-opacity:1;fill-rule:nonzero;stroke:none;font-style:normal;font-stretch:normal;"
           id="text186"><tspan
             x="0"
             y="0"
             sodipodi:role="line"
             id="tspan188">24</tspan></text>
<text
           transform="matrix(1,0,0,-1,353.26,123.79)"
           style="font-variant:normal;font-weight:normal;font-size:11px;font-family:Roboto;-inkscape-font-specification:Roboto;writing-mode:lr-tb;fill:#ffffff;fill-opacity:1;fill-rule:nonzero;stroke:none;font-style:normal;font-stretch:normal;"
           id="text190"><tspan
             x="0"
             y="0"
             sodipodi:role="line"
             id="tspan192">25</tspan></text>
<text
           transform="matrix(1,0,0,-1,383.39,141.19)"
           style="font-variant:normal;font-weight:normal;font-size:11px;font-family:Roboto;-inkscape-font-specification:Roboto;writing-mode:lr-tb;fill:#ffffff;fill-opacity:1;fill-rule:nonzero;stroke:none;font-style:normal;font-stretch:normal;"
           id="text194"><tspan
             x="0"
             y="0"
             sodipodi:role="line"
             id="tspan196">26</tspan></text>
<text
           transform="matrix(1,0,0,-1,413.52,123.79)"
           style="font-variant:normal;font-weight:normal;font-size:11px;font-family:Roboto;-inkscape-font-specification:Roboto;writing-mode:lr-tb;fill:#ffffff;fill-opacity:1;fill-rule:nonzero;stroke:none;font-style:normal;font-stretch:normal;"
           id="text198"><tspan
             x="0"
             y="0"
             sodipodi:role="line"
             id="tspan200">27</tspan></text>
<text
           transform="matrix(1,0,0,-1,262.88,175.98)"
           style="font-variant:normal;font-weight:normal;font-size:11px;font-family:Roboto;-inkscape-font-specification:Roboto;writing-mode:lr-tb;fill:#ffffff;fill-opacity:1;fill-rule:nonzero;stroke:none;font-style:normal;font-stretch:normal;"
           id="text202"><tspan
             x="0"
             y="0"
             sodipodi:role="line"
             id="tspan204">31</tspan></text>
<text
           transform="matrix(1,0,0,-1,293,193.37)"
           style="font-variant:normal;font-weight:normal;font-size:11px;font-family:Roboto;-inkscape-font-specification:Roboto;writing-mode:lr-tb;fill:#ffffff;fill-opacity:1;fill-rule:nonzero;stroke:none;font-style:normal;font-stretch:normal;"
           id="text206"><tspan
             x="0"
             y="0"
             sodipodi:role="line"
             id="tspan208">32</tspan></text>
<text
           transform="matrix(1,0,0,-1,323.13,175.98)"
           style="font-variant:normal;font-weight:normal;font-size:11px;font-family:Roboto;-inkscape-font-specification:Roboto;writing-mode:lr-tb;fill:#ffffff;fill-opacity:1;fill-rule:nonzero;stroke:none;font-style:normal;font-stretch:normal;"
           id="text210"><tspan
             x="0"
             y="0"
             sodipodi:role="line"
             id="tspan212">33</tspan></text>
<text
           transform="matrix(1,0,0,-1,353.26,193.37)"
           style="font-variant:normal;font-weight:normal;font-size:11px;font-family:Roboto;-inkscape-font-specification:Roboto;writing-mode:lr-tb;fill:#ffffff;fill-opacity:1;fill-rule:nonzero;stroke:none;font-style:normal;font-stretch:normal;"
           id="text214"><tspan
             x="0"
             y="0"
             sodipodi:role="line"
             id="tspan216">34</tspan></text>
<text
           transform="matrix(1,0,0,-1,383.39,175.98)"
           style="font-variant:normal;font-weight:normal;font-size:11px;font-family:Roboto;-inkscape-font-specification:Roboto;writing-mode:lr-tb;fill:#ffffff;fill-opacity:1;fill-rule:nonzero;stroke:none;font-style:normal;font-stretch:normal;"
           id="text218"><tspan
             x="0"
             y="0"
             sodipodi:role="line"
             id="tspan220">35</tspan></text>
<text
           transform="matrix(1,0,0,-1,293,228.16)"
           style="font-variant:normal;font-weight:normal;font-size:11px;font-family:Roboto;-inkscape-font-specification:Roboto;writing-mode:lr-tb;fill:#ffffff;fill-opacity:1;fill-rule:nonzero;stroke:none;font-style:normal;font-stretch:normal;"
           id="text222"><tspan
             x="0"
             y="0"
             sodipodi:role="line"
             id="tspan224">41</tspan></text>
<text
           transform="matrix(1,0,0,-1,323.13,245.56)"
           style="font-variant:normal;font-weight:normal;font-size:11px;font-family:Roboto;-inkscape-font-specification:Roboto;writing-mode:lr-tb;fill:#ffffff;fill-opacity:1;fill-rule:nonzero;stroke:none;font-style:normal;font-stretch:normal;"
           id="text226"><tspan
             x="0"
             y="0"
             sodipodi:role="line"
             id="tspan228">42</tspan></text>
<text
           transform="matrix(1,0,0,-1,353.26,228.16)"
           style="font-variant:normal;font-weight:normal;font-size:11px;font-family:Roboto;-inkscape-font-specification:Roboto;writing-mode:lr-tb;fill:#ffffff;fill-opacity:1;fill-rule:nonzero;stroke:none;font-style:normal;font-stretch:normal;"
           id="text230"><tspan
             x="0"
             y="0"
             sodipodi:role="line"
             id="tspan232">43</tspan></text>
<text
           transform="matrix(1,0,0,-1,323.13,280.35)"
           style="font-variant:normal;font-weight:normal;font-size:11px;font-family:Roboto;-inkscape-font-specification:Roboto;writing-mode:lr-tb;fill:#ffffff;fill-opacity:1;fill-rule:nonzero;stroke:none;font-style:normal;font-stretch:normal;"
           id="text234"><tspan
             x="0"
             y="0"
             sodipodi:role="line"
             id="tspan236">51</tspan></text>
</g></g><g
       id="g238" /><g
       id="g240" /><g
       id="g242" /><g
       id="g244" /><g
       id="g246" /><g
       id="g248" /><g
       id="g250" /><g
       id="g252" /></g></svg>