<?xml version="1.0" encoding="UTF-8" standalone="no"?>
<svg xmlns:rdf="http://www.w3.org/1999/02/22-rdf-syntax-ns#" xmlns="http://www.w3.org/2000/svg" xml:space="preserve" height="259.5" width="446.8" version="1.1" xmlns:cc="http://creativecommons.org/ns#" xmlns:dc="http://purl.org/dc/elements/1.1/" viewBox="0 0 446.7997 259.50726"><metadata><rdf:RDF><cc:Work rdf:about=""><dc:format>image/svg+xml</dc:format><dc:type rdf:resource="http://purl.org/dc/dcmitype/StillImage"/><dc:title/></cc:Work></rdf:RDF></metadata><g transform="matrix(1.25 0 0 -1.25 2.129 257.2)"><g transform="matrix(0,1,1,0,0,205)"><path stroke-linejoin="round" d="m-79.17 131-9.613-3.535 9.613-3.536c-1.535 2.086-1.527 4.942 0 7.071z" fill-rule="evenodd" stroke="#000" stroke-width="0.55"/></g><g transform="matrix(1,0,0,-1,0,205)"><path d="m47.71 126.8h40" stroke="#000" stroke-width="0.8" fill="none"/></g><g transform="matrix(-1,0,0,1,0,205)"><path stroke-linejoin="round" d="m-79.16-123.2-9.613-3.535 9.613-3.536c-1.535 2.086-1.528 4.942 0 7.071z" fill-rule="evenodd" stroke="#000" stroke-width="0.55"/></g><path d="m127.4 157.3v-40" stroke="#000" stroke-width="0.8" fill="none"/><path fill="#7e7e7e" d="m19.17 102.6v11.49h24.52v-22.99h-24.52v11.5z"/><path fill="#e5e5e5" d="m19.17 53.59v11.49h24.52v-22.99h-24.52v11.5z"/><path fill="#7fb595" d="m90.65 173.9v11.5h22.99v-22.99h-22.99v11.49z"/><path fill="#cddbec" d="m115.2 53.47v11.5h24.52v-22.99h-24.52v11.49z"/><path fill="#b2b2b2" d="m19.17 78.11v11.5h24.52v-22.99h-24.52v11.49z"/><path fill="#fab3d8" d="m141.2 53.47v11.5h22.99v-22.99h-22.99v11.49z"/><path fill="#cbe7d6" d="m90.65 53.47v11.5h22.99v-22.99h-22.99v11.49z"/><path fill="#f567b2" d="m141.2 77.99v11.49h22.99v-22.99h-22.99v11.5z"/><path fill="#84a7cf" d="m115.2 77.99v11.49h24.52v-22.99h-24.52v11.5z"/><path fill="#7fc29a" d="m90.65 77.99v11.49h22.99v-22.99h-22.99v11.5z"/><path fill="#d50065" d="m141.2 102.5v11.5h22.99v-22.99h-22.99v11.49z"/><path fill="#094fa0" d="m115.2 102.5v11.5h24.52v-22.99h-24.52v11.49z"/><path fill="#008736" d="m90.65 102.5v11.5h22.99v-22.99h-22.99v11.49z"/><path fill="#80d0e3" d="m282.8 68.42 12.97 22.47h-25.94l12.97-22.47z"/><path fill="#01a0c6" d="m268.6 89.73-12.97-22.47h25.95l-12.97 22.47z"/><path fill="#ffffb3" d="m297.3 93.64 12.97 22.47h-25.94l12.97-22.47z"/><path fill="#b3dcc3" d="m283.2 115-12.97-22.47h25.94l-12.97 22.47z"/><path fill="#ff0" d="m297.7 140.2-12.97-22.47h25.95l-12.97 22.47z"/><path fill="#f782bf" d="m311.1 68.9 12.97 22.46h-25.95l12.97-22.46z"/><path fill="#b8b3d8" d="m297 90.13-12.97-22.47h25.94l-12.97 22.47z"/><path fill="#ffb3b3" d="m311.6 115.3-12.97-22.47h25.95l-12.98 22.47z"/><path fill="#f11d8c" d="m312.4 68.12 12.97 22.47 12.98-22.47h-25.95z"/><path fill="#839fbf" d="m115.2 173.9v11.5h24.52v-22.99h-24.52v11.49z"/><path fill="#dd67a5" d="m141.2 173.9v11.5h22.99v-22.99h-22.99v11.49z"/><path d="m247.2 71.67 41.9 74.05" stroke="#000" stroke-width="0.8" fill="none"/><path stroke-linejoin="round" d="m281.8 140 7.812 6.626-1.656-10.11c-1.062 2.367-3.551 3.766-6.156 3.484z" fill-rule="evenodd" stroke="#000" stroke-width="0.55"/><path d="m308.2 146.9 41.9-74.01" stroke="#000" stroke-width="0.8" fill="none"/><path stroke-linejoin="round" d="m349 82.08 1.656-10.11-7.813 6.625c2.575-0.3082 5.055 1.106 6.156 3.485z" fill-rule="evenodd" stroke="#000" stroke-width="0.55"/><path d="m340.2 58.02h-86.67" stroke="#000" stroke-width="0.8" fill="none"/><path stroke-linejoin="round" d="m262.1 54.47-9.613 3.535 9.613 3.535c-1.535-2.086-1.527-4.942 0-7.07z" fill-rule="evenodd" stroke="#000" stroke-width="0.55"/><text style="word-spacing:0px;letter-spacing:0px" xml:space="preserve" font-size="16px" transform="matrix(0,1,1,0,0,0)" y="10.245563" x="40.413254" font-family="&apos;Liberation Serif&apos;" line-height="125%" fill="#000000"><tspan font-size="16px" y="10.245563" x="40.413254" font-family="&apos;TeX Gyre Heros&apos;">Sequential</tspan></text>
<text style="word-spacing:0px;letter-spacing:0px" xml:space="preserve" font-size="16px" transform="scale(1,-1)" y="-21.626692" x="127.52538" font-family="&apos;TeX Gyre Heros&apos;" line-height="125%" fill="#000000"><tspan style="text-anchor:middle;text-align:center" y="-21.626692" x="127.52538">Qualitative-</tspan><tspan style="text-anchor:middle;text-align:center" y="-1.6266918" x="127.52538">Sequential</tspan></text>
<text style="word-spacing:0px;letter-spacing:0px" xml:space="preserve" font-size="16px" transform="scale(1,-1)" y="-160.67668" x="239.40492" font-family="&apos;Liberation Serif&apos;" line-height="125%" fill="#000000"><tspan font-size="16px" y="-160.67668" x="239.40492" font-family="&apos;TeX Gyre Heros&apos;">Ternary-Balance</tspan></text>
<text style="word-spacing:0px;letter-spacing:0px" xml:space="preserve" font-size="30px" transform="scale(1,-1)" y="-193.79236" x="126.8215" font-family="&apos;Liberation Serif&apos;" line-height="125%" fill="#000000"><tspan font-size="16px" y="-193.79236" x="89.818375" font-family="&apos;TeX Gyre Heros&apos;">Qualitative</tspan></text>
<text style="word-spacing:0px;letter-spacing:0px" xml:space="preserve" font-size="16px" transform="scale(1,-1)" y="-168.03995" x="96.786446" font-family="&apos;TeX Gyre Heros&apos;" line-height="125%" fill="#000000"><tspan font-size="16px" y="-168.03995" x="96.786446" font-family="&apos;TeX Gyre Heros&apos;">A</tspan></text>
<text style="word-spacing:0px;letter-spacing:0px" xml:space="preserve" font-size="16px" transform="scale(1,-1)" y="-168.03995" x="121.81345" font-family="&apos;TeX Gyre Heros&apos;" line-height="125%" fill="#000000"><tspan font-size="16px" y="-168.03995" x="121.81345" font-family="&apos;TeX Gyre Heros&apos;">B</tspan></text>
<text style="word-spacing:0px;letter-spacing:0px" xml:space="preserve" font-size="16px" transform="scale(1,-1)" y="-168.03995" x="146.91394" font-family="&apos;TeX Gyre Heros&apos;" line-height="125%" fill="#000000"><tspan font-size="16px" y="-168.03995" x="146.91394" font-family="&apos;TeX Gyre Heros&apos;">C</tspan></text>
<text style="word-spacing:0px;letter-spacing:0px" xml:space="preserve" font-size="16px" transform="scale(1,-1)" y="-96.799942" x="92.618652" font-family="&apos;TeX Gyre Heros&apos;" line-height="125%" fill="#ffffff"><tspan font-size="16px" y="-96.799942" x="92.618652" font-family="&apos;TeX Gyre Heros&apos;" fill="#ffffff">A3</tspan></text>
<text style="word-spacing:0px;letter-spacing:0px" xml:space="preserve" font-size="16px" transform="scale(1,-1)" y="-72.157944" x="92.578659" font-family="&apos;TeX Gyre Heros&apos;" line-height="125%" fill="#000000"><tspan font-size="16px" y="-72.157944" x="92.578659" font-family="&apos;TeX Gyre Heros&apos;">A2</tspan></text>
<text style="word-spacing:0px;letter-spacing:0px" xml:space="preserve" font-size="30px" transform="scale(1,-1)" y="-207.60593" x="-93.379242" font-family="&apos;Liberation Serif&apos;" line-height="125%" fill="#000000"><tspan y="-207.60593" x="-93.379242"/></text>
<text style="word-spacing:0px;letter-spacing:0px" xml:space="preserve" font-size="16px" transform="scale(1,-1)" y="-47.642441" x="93.890671" font-family="&apos;TeX Gyre Heros&apos;" line-height="125%" fill="#000000"><tspan font-size="16px" y="-47.642441" x="93.890671" font-family="&apos;TeX Gyre Heros&apos;" fill="#000000">A1</tspan></text>
<text style="word-spacing:0px;letter-spacing:0px" xml:space="preserve" font-size="16px" transform="scale(1,-1)" y="-96.799942" x="117.40565" font-family="&apos;TeX Gyre Heros&apos;" line-height="125%" fill="#ffffff"><tspan font-size="16px" y="-96.799942" x="117.40565" font-family="&apos;TeX Gyre Heros&apos;">B3</tspan></text>
<text style="word-spacing:0px;letter-spacing:0px" xml:space="preserve" font-size="16px" transform="scale(1,-1)" y="-72.157944" x="117.36565" font-family="&apos;TeX Gyre Heros&apos;" line-height="125%" fill="#000000"><tspan font-size="16px" y="-72.157944" x="117.36565" font-family="&apos;TeX Gyre Heros&apos;">B2</tspan></text>
<text style="word-spacing:0px;letter-spacing:0px" xml:space="preserve" font-size="16px" transform="scale(1,-1)" y="-47.642441" x="118.67767" font-family="&apos;TeX Gyre Heros&apos;" line-height="125%" fill="#000000"><tspan font-size="16px" y="-47.642441" x="118.67767" font-family="&apos;TeX Gyre Heros&apos;">B1</tspan></text>
<text style="word-spacing:0px;letter-spacing:0px" xml:space="preserve" font-size="16px" transform="scale(1,-1)" y="-96.679939" x="142.50066" font-family="&apos;TeX Gyre Heros&apos;" line-height="125%" fill="#ffffff"><tspan font-size="16px" y="-96.679939" x="142.50066" font-family="&apos;TeX Gyre Heros&apos;">C3</tspan></text>
<text style="word-spacing:0px;letter-spacing:0px" xml:space="preserve" font-size="16px" transform="scale(1,-1)" y="-72.157944" x="142.46065" font-family="&apos;TeX Gyre Heros&apos;" line-height="125%" fill="#000000"><tspan font-size="16px" y="-72.157944" x="142.46065" font-family="&apos;TeX Gyre Heros&apos;">C2</tspan></text>
<text style="word-spacing:0px;letter-spacing:0px" xml:space="preserve" font-size="16px" transform="scale(1,-1)" y="-47.642441" x="143.77266" font-family="&apos;TeX Gyre Heros&apos;" line-height="125%" fill="#000000"><tspan font-size="16px" y="-47.642441" x="143.77266" font-family="&apos;TeX Gyre Heros&apos;">C1</tspan></text>
<text style="word-spacing:0px;letter-spacing:0px" xml:space="preserve" font-size="16px" transform="scale(1,-1)" y="-97.085945" x="27.127457" font-family="&apos;TeX Gyre Heros&apos;" line-height="125%" fill="#ffffff"><tspan font-size="16px" y="-97.085945" x="27.127457" font-family="&apos;TeX Gyre Heros&apos;">3</tspan></text>
<text style="word-spacing:0px;letter-spacing:0px" xml:space="preserve" font-size="16px" transform="scale(1,-1)" y="-72.442947" x="27.071457" font-family="&apos;TeX Gyre Heros&apos;" line-height="125%" fill="#000000"><tspan font-size="16px" y="-72.442947" x="27.071457" font-family="&apos;TeX Gyre Heros&apos;">2</tspan></text>
<text style="word-spacing:0px;letter-spacing:0px" xml:space="preserve" font-size="16px" transform="scale(1,-1)" y="-47.919945" x="27.839464" font-family="&apos;TeX Gyre Heros&apos;" line-height="125%" fill="#000000"><tspan font-size="16px" y="-47.919945" x="27.839464" font-family="&apos;TeX Gyre Heros&apos;">1</tspan></text>
<path d="m202.8 155.9v-105.5" stroke="#000" stroke-dasharray="0.8, 2.4" stroke-width="0.8" fill="none"/><text style="word-spacing:0px;letter-spacing:0px" xml:space="preserve" font-size="16px" transform="scale(1,-1)" y="-108.26102" x="238.32556" font-family="&apos;TeX Gyre Heros&apos;" line-height="125%" fill="#000000"><tspan font-size="16px" y="-108.26102" x="238.32556" font-family="&apos;TeX Gyre Heros&apos;">%B</tspan></text>
<text style="word-spacing:0px;letter-spacing:0px" xml:space="preserve" font-size="16px" transform="scale(1,-1)" y="-112.19238" x="329.49066" font-family="&apos;TeX Gyre Heros&apos;" line-height="125%" fill="#000000"><tspan font-size="16px" y="-112.19238" x="329.49066" font-family="&apos;TeX Gyre Heros&apos;">%C</tspan></text>
<text style="word-spacing:0px;letter-spacing:0px" xml:space="preserve" font-size="16px" transform="scale(1,-1)" y="-41.445358" x="284.48401" font-family="&apos;TeX Gyre Heros&apos;" line-height="125%" fill="#000000"><tspan font-size="16px" y="-41.445358" x="284.48401" font-family="&apos;TeX Gyre Heros&apos;">%A</tspan></text>
</g></svg>
